Coordinates
version=1
nRows=6
nColumns=36
inDegrees=yes

Units are S.I. units (second, meters, Newtons, ...)
If the header above contains a line with 'inDegrees', this indicates whether rotational values are in degrees (yes) or radians (no).

endheader
time	pelvis_tilt	pelvis_list	pelvis_rotation	pelvis_tx	pelvis_ty	pelvis_tz	hip_flexion_r	hip_adduction_r	hip_rotation_r	knee_angle_r	knee_angle_r_beta	ankle_angle_r	subtalar_angle_r	mtp_angle_r	hip_flexion_l	hip_adduction_l	hip_rotation_l	knee_angle_l	knee_angle_l_beta	ankle_angle_l	subtalar_angle_l	mtp_angle_l	lumbar_extension	lumbar_bending	lumbar_rotation	arm_flex_r	arm_add_r	arm_rot_r	elbow_flex_r	pro_sup_r	arm_flex_l	arm_add_l	arm_rot_l	elbow_flex_l	pro_sup_l
     29.83333330	      8.65057124	      2.25016831	     -6.05966903	      0.38337439	      0.91915803	      0.75863859	    -25.61759382	     -0.81599872	      2.56564677	      6.69974595	      0.11693263	     18.79437207	     -4.81056220	     -7.49999987	     24.48896732	      2.12401772	      1.55125473	     28.34561116	      0.49472424	      7.28461889	    -12.31432021	     -7.49999987	    -19.75487909	     -5.25117665	      9.51646909	     28.13591640	    -18.68942360	      5.17981547	     45.06481383	     82.31229254	      1.93734931	     -8.90545022	      0.88834164	     12.15199320	     80.16796522
     29.85000000	      8.63030995	      2.33568395	     -6.08826256	      0.38987046	      0.91900081	      0.75492715	    -25.44953348	     -1.31280036	      2.67137625	      8.60909488	      0.15025705	     18.34886743	     -5.97810215	     -7.49999987	     23.91986680	      2.46977733	      1.49095470	     29.61317674	      0.51684744	      5.76381056	    -12.90424436	     -7.49999987	    -19.39751317	     -5.32399267	      9.00554701	     27.09262035	    -18.44770236	      4.90840562	     45.94748232	     82.67666022	      2.14894283	     -8.72142563	      0.67732495	     12.54371152	     80.33395599
     29.86666670	      8.86858991	      2.43917440	     -5.95687498	      0.39548324	      0.92427292	      0.75279905	    -24.76541422	     -1.81057135	      2.33301712	     11.80633169	      0.20605936	     17.03679578	     -8.03483647	     -7.49999987	     22.68558884	      2.90277266	      1.52300884	     30.55003894	      0.53319877	      4.58395072	    -13.34557948	     -7.49999987	    -19.35521538	     -5.44569214	      8.25505840	     25.56851251	    -17.95476304	      4.33125252	     46.97221142	     82.93616787	      2.44289614	     -8.66089326	      0.42096092	     12.91062255	     80.42155420
     29.88333330	      9.27011274	      2.47670072	     -5.70684640	      0.39928698	      0.93299968	      0.75043890	    -22.82046147	     -2.29149571	      1.51632097	     17.41714983	      0.30398661	     14.23060909	    -11.38871787	     -7.49999987	     20.88929103	      3.26180939	      1.51259603	     31.11725826	      0.54309861	      3.78281670	    -13.73638383	     -7.49999987	    -19.62513649	     -5.50162901	      7.06478502	     23.96192187	    -17.14291148	      4.11468897	     47.73637853	     81.75151689	      2.59266180	     -8.68696277	      0.36520503	     13.46324714	     79.12662669
     29.90000000	      9.38899769	      2.56242136	     -5.76505169	      0.40233745	      0.94088552	      0.74578773	    -18.82957510	     -3.11421391	      0.78365351	     25.89527147	      0.45195775	      9.29504436	    -16.01460626	     -7.49999987	     19.06309841	      3.53275495	      1.08176122	     31.21341064	      0.54477679	      3.20528842	    -14.03265231	     -7.49999987	    -19.40515084	     -5.65078902	      6.99077696	     21.54392145	    -16.58294875	      2.69449339	     48.17942423	     84.09755689	      3.32376054	     -8.58319358	      1.45446326	     13.15258649	     80.33615674
     29.91666670	      9.10393315	      2.82306014	     -6.27542219	      0.40603251	      0.94546498	      0.73965604	    -13.30041865	     -4.37153116	      0.54901562	     35.76931250	      0.62429227	      2.29856602	    -20.88097779	     -7.49999987	     17.35892299	      3.89677346	      0.28249798	     30.46986522	      0.53179947	      3.02246873	    -14.30191074	     -7.49999987	    -18.82465691	     -5.94079234	      6.36910526	     19.91893256	    -15.81223859	      3.10295960	     47.29931795	     84.09285472	      3.06877480	     -8.38824567	      1.44965088	     13.70893718	     80.23445070
